<?xml version="1.0" standalone="no"?>
<!DOCTYPE svg PUBLIC "-//W3C//DTD SVG 20010904//EN"
 "http://www.w3.org/TR/2001/REC-SVG-20010904/DTD/svg10.dtd">
<svg version="1.0" xmlns="http://www.w3.org/2000/svg"
 width="100px" height="100px" viewBox="0 0 512.000000 512.000000"
 preserveAspectRatio="xMidYMid meet">

<g transform="translate(0.000000,512.000000) scale(0.100000,-0.100000)"
fill="#000000" stroke="none">
<path d="M1900 4780 c-442 -55 -849 -268 -1132 -595 -525 -605 -583 -1477
-141 -2137 442 -660 1260 -945 2013 -702 142 46 364 158 480 243 l95 69 655
-653 c360 -359 666 -658 679 -665 32 -16 114 -14 148 3 32 17 65 51 83 86 17
33 15 112 -3 147 -9 16 -306 319 -661 674 -355 355 -646 649 -646 655 0 5 29
51 65 100 77 107 193 334 234 460 147 445 115 914 -88 1330 -253 516 -721 868
-1290 970 -104 19 -388 27 -491 15z m460 -370 c505 -97 912 -454 1075 -943 51
-151 69 -267 69 -442 0 -175 -18 -291 -69 -443 -164 -490 -587 -856 -1095
-948 -128 -24 -362 -23 -490 0 -517 94 -948 473 -1100 966 -48 157 -63 259
-63 425 0 384 140 723 413 995 239 240 537 379 885 414 77 8 279 -5 375 -24z"/>
</g>
</svg>
