<?xml version="1.0" standalone="no"?>
<!DOCTYPE svg PUBLIC "-//W3C//DTD SVG 20010904//EN"
 "http://www.w3.org/TR/2001/REC-SVG-20010904/DTD/svg10.dtd">
<svg version="1.0" xmlns="http://www.w3.org/2000/svg"
 width="512.000000pt" height="512.000000pt" viewBox="0 0 512.000000 512.000000"
 preserveAspectRatio="xMidYMid meet">

<g transform="translate(0.000000,512.000000) scale(0.100000,-0.100000)"
fill="#2f9e44" stroke="none">
<path d="M741 5102 c-19 -9 -44 -30 -55 -45 -21 -28 -21 -40 -24 -626 l-2
-597 -83 -27 c-238 -78 -416 -268 -483 -517 -23 -88 -23 -262 0 -350 41 -151
128 -290 243 -385 73 -60 198 -126 276 -146 l47 -11 0 -1142 c0 -1067 1 -1143
18 -1175 53 -106 204 -105 253 2 18 40 19 83 19 1179 l0 1137 58 16 c114 33
210 93 308 190 78 78 98 104 137 185 55 115 77 209 77 327 0 121 -22 212 -74
318 -90 181 -236 309 -424 371 l-82 27 0 581 0 582 -22 44 c-38 73 -115 99
-187 62z m195 -1568 c177 -50 305 -225 305 -419 0 -324 -332 -534 -627 -396
-169 79 -276 278 -246 458 24 146 119 275 247 335 104 48 202 55 321 22z"/>
<path d="M2504 5106 c-17 -7 -42 -29 -55 -47 l-24 -34 -3 -1201 -2 -1200 -52
-13 c-28 -8 -85 -31 -127 -52 -148 -74 -261 -188 -331 -334 -52 -109 -70 -190
-70 -317 0 -209 65 -364 215 -513 98 -98 169 -143 290 -181 l70 -22 5 -549 c5
-547 5 -548 27 -579 26 -36 78 -64 118 -64 40 0 92 28 118 64 22 31 22 32 27
579 l5 549 70 22 c121 38 192 83 290 181 149 148 216 307 216 510 1 124 -20
215 -71 320 -48 98 -110 177 -192 246 -68 56 -189 120 -268 140 l-50 13 0
1190 c0 1114 -1 1193 -18 1225 -9 19 -29 43 -43 54 -34 25 -105 31 -145 13z
m147 -2766 c224 -42 384 -270 349 -497 -27 -171 -150 -310 -318 -359 -38 -11
-81 -15 -142 -12 -73 3 -97 9 -161 40 -223 107 -315 360 -211 583 86 183 283
283 483 245z"/>
<path d="M4250 5102 c-21 -11 -44 -35 -57 -62 l-23 -44 0 -582 0 -581 -83 -27
c-184 -60 -343 -201 -428 -381 -47 -98 -69 -198 -69 -313 0 -120 22 -211 74
-317 90 -181 236 -309 424 -371 l82 -27 0 -1136 0 -1137 23 -44 c54 -105 196
-105 249 1 17 32 18 108 18 1175 l0 1141 82 27 c242 80 417 266 484 516 25 97
23 263 -5 365 -69 246 -255 437 -499 510 l-62 19 0 585 c0 538 -1 589 -18 620
-36 72 -123 100 -192 63z m190 -1564 c207 -62 348 -283 312 -488 -53 -297
-363 -459 -629 -329 -232 112 -316 410 -179 628 104 164 313 244 496 189z"/>
</g>
</svg>
