<?xml version="1.0" standalone="no"?>
<!DOCTYPE svg PUBLIC "-//W3C//DTD SVG 20010904//EN"
 "http://www.w3.org/TR/2001/REC-SVG-20010904/DTD/svg10.dtd">
<svg version="1.0" xmlns="http://www.w3.org/2000/svg"
 width="512.000000pt" height="512.000000pt" viewBox="0 0 512.000000 512.000000"
 preserveAspectRatio="xMidYMid meet">

<g transform="translate(0.000000,512.000000) scale(0.100000,-0.100000)"
fill="#F93700" stroke="none">
<path d="M2365 4949 c-559 -45 -1097 -294 -1496 -691 -786 -783 -932 -2006
-351 -2952 319 -520 836 -905 1423 -1061 212 -56 382 -78 609 -78 395 -1 709
70 1065 243 955 462 1491 1520 1305 2570 -216 1214 -1326 2069 -2555 1969z
m595 -1764 l400 400 116 -116 115 -115 -402 -398 -402 -398 399 -399 399 -399
-113 -112 -112 -113 -400 400 -400 400 -397 -397 -398 -398 -113 112 -113 112
398 398 398 398 -398 398 -397 397 112 113 113 112 397 -397 398 -398 400 400z"/>
</g>
</svg>
